<svg width="242" height="200" viewBox="0 0 242 200" fill="none" xmlns="http://www.w3.org/2000/svg">
<path d="M31.136 83.8789L116.171 30.2098L201.207 83.8789V162.183H31.136V83.8789Z" fill="#E6E7E8"/>
<path fill-rule="evenodd" clip-rule="evenodd" d="M30.7421 162.183C30.7421 162.401 30.9184 162.577 31.1359 162.577H201.207C201.421 162.595 201.611 162.437 201.632 162.223V83.9183C201.631 83.7826 201.56 83.6571 201.443 83.5878L116.376 29.9108C116.248 29.8329 116.087 29.8329 115.959 29.9108L30.9233 83.5485C30.8083 83.6185 30.7393 83.7444 30.7421 83.8789V162.183ZM200.852 161.79H31.5061V84.0993L116.171 30.6977L200.852 84.0993V161.79Z" fill="#231F20"/>
<path d="M136.887 62.8C139.714 58.1341 140.431 52.4612 140.171 47.0163C139.983 41.0594 138.41 35.2278 135.579 29.9817C134.429 27.7287 132.741 25.7938 130.664 24.348C128.112 22.7744 126.372 23.8366 123.875 23.4117C121.764 23.0498 119.558 21.5469 117.219 21.1614C111.822 20.2397 106.277 21.3983 101.702 24.4031C93.6995 29.8086 90.0054 40.1395 81.7351 45.1594C73.6301 50.0535 63.2567 48.5821 54.1671 51.2888C50.3304 52.4374 46.7557 54.3245 43.644 56.8438C41.4944 58.4877 39.7353 60.5861 38.4928 62.9888C36.3582 67.4422 36.9175 72.7454 38.4928 77.4427C40.0681 82.2738 42.7303 86.8846 46.8577 89.8824C50.3155 92.3766 54.5609 93.5254 58.7591 94.2807C64.4696 95.3115 70.3849 95.697 76.0876 94.4617C80.2963 93.6132 84.219 91.7068 87.4849 88.9225C88.887 87.6714 89.6589 85.964 90.9664 84.7208C92.7701 83.0134 95.582 81.967 97.693 80.6608C100.993 78.6072 104.301 76.4199 108.066 75.4442C117.629 72.9579 131.121 72.2812 136.887 62.8Z" fill="white"/>
<path fill-rule="evenodd" clip-rule="evenodd" d="M58.6725 94.6663C61.9035 95.277 65.1827 95.5983 68.4709 95.6262C71.053 95.6558 73.6306 95.4052 76.1585 94.8788C80.4532 94.0143 84.4521 92.0577 87.7685 89.1979C88.4871 88.5165 89.1265 87.7564 89.6746 86.9319C90.1381 86.2365 90.6655 85.5859 91.2499 84.9884C92.5414 83.9001 93.9749 82.9922 95.5112 82.2896C96.3382 81.8647 97.1259 81.432 97.9135 80.9678L98.7012 80.4563L98.7657 80.4162C101.731 78.5718 104.783 76.6733 108.153 75.8062C109.96 75.3344 111.888 74.941 113.931 74.5242L114.242 74.4607L114.242 74.4606C122.796 72.7139 132.468 70.7388 137.194 63.0125C139.746 58.8345 140.841 53.4841 140.534 47.0321C140.352 41.0157 138.764 35.1251 135.894 29.8322C134.721 27.5245 132.988 25.547 130.853 24.0805C129.508 23.2503 127.913 22.9189 126.348 23.1442C125.545 23.2192 124.736 23.2007 123.938 23.0892C122.882 22.8516 121.854 22.5007 120.874 22.0427C119.721 21.4819 118.505 21.0643 117.25 20.7995C111.767 19.8773 106.137 21.0667 101.497 24.1278C97.5906 26.7872 94.6605 30.6348 91.8328 34.3564L91.8048 34.3933C88.8283 38.308 85.7547 42.3506 81.546 44.892C76.7098 47.8111 71.1569 48.4248 65.2809 49.07C61.4955 49.3785 57.7447 50.0209 54.0726 50.9898C50.1924 52.1507 46.5773 54.0592 43.4314 56.6078C41.2317 58.2857 39.4387 60.4372 38.1856 62.9023C35.7675 67.8908 36.8387 73.6897 38.1305 77.6238C39.9421 83.1315 42.8643 87.5141 46.6214 90.2129C50.3785 92.9117 55.0335 94.0133 58.6725 94.6663ZM101.907 24.7651C105.377 22.456 109.458 21.2341 113.627 21.2559C114.829 21.2651 116.028 21.3756 117.211 21.5863C118.398 21.8338 119.551 22.2221 120.645 22.743C121.672 23.2273 122.75 23.5942 123.859 23.8366C124.712 23.9567 125.576 23.9804 126.435 23.9074C127.848 23.672 129.298 23.9512 130.522 24.6943C132.551 26.105 134.197 27.9977 135.311 30.202C138.126 35.3954 139.683 41.176 139.856 47.0793C140.155 53.3897 139.069 58.6299 136.627 62.6584C132.09 70.1175 122.559 72.0609 114.139 73.7683C111.957 74.209 109.941 74.626 108.019 75.1217C104.533 76.006 101.428 77.9413 98.4265 79.8125L98.3782 79.8426L97.5433 80.3619C96.8108 80.8104 96.0231 81.2195 95.1803 81.6523C93.5827 82.3844 92.0933 83.3322 90.7537 84.4691C90.1302 85.0958 89.5684 85.7808 89.076 86.5148C88.5567 87.2957 87.9517 88.0162 87.2723 88.6629C84.0494 91.4374 80.1645 93.3344 75.9931 94.1706C71.0702 95.2407 65.4621 95.1778 58.83 93.9897C55.2698 93.3445 50.6857 92.2508 47.0703 89.6464C43.455 87.042 40.6116 82.8089 38.8472 77.3877C37.5791 73.5716 36.563 67.9931 38.8472 63.2249C40.0628 60.8672 41.7905 58.8107 43.904 57.2057C46.977 54.7102 50.509 52.8392 54.301 51.698C57.9289 50.7408 61.6351 50.1088 65.3755 49.8096L65.4295 49.8036C71.0918 49.176 76.9619 48.5254 81.9162 45.5293C86.2467 42.9228 89.3694 38.8122 92.3879 34.8391L92.4078 34.8128L92.4486 34.7591C95.2321 31.1014 98.1054 27.3255 101.907 24.7651Z" fill="#231F20"/>
<path d="M169.023 55.0891L164.88 70.6682L174.859 72.4464L180.546 51.6349C180.546 51.6349 171.677 44.8525 170.307 44.8053C168.936 44.7581 169.023 55.0891 169.023 55.0891Z" fill="white"/>
<path fill-rule="evenodd" clip-rule="evenodd" d="M174.789 72.8398H174.859C175.025 72.8376 175.171 72.73 175.222 72.5723L180.917 51.7609C180.957 51.6061 180.901 51.4422 180.775 51.3439C179.27 50.203 171.725 44.4828 170.315 44.4356C170.119 44.4279 169.929 44.5054 169.795 44.648C168.629 45.7732 168.629 53.4211 168.629 55.0891L164.518 70.5974C164.487 70.7032 164.503 70.817 164.561 70.9102C164.62 71.0034 164.716 71.0671 164.825 71.0852L174.789 72.8398ZM174.592 71.9979L165.408 70.3771L169.44 55.215C169.445 55.1811 169.445 55.1467 169.44 55.1127C169.409 50.7065 169.755 45.6158 170.315 45.1988C171.071 45.2224 175.844 48.5428 180.105 51.7845L174.592 71.9979Z" fill="#231F20"/>
<path d="M158.24 44.8999C158.24 44.8999 159.65 48.0471 161.682 48.5586C163.714 49.07 168.133 46.8905 168.645 47.1738C169.157 47.457 180.814 56.175 181.948 56.4347C183.083 56.6943 185.17 53.9483 186.06 50.683C186.06 50.683 174.718 42.9564 173.977 42.1381C173.237 41.3198 172.355 36.4258 171.252 34.6318L158.24 44.8999Z" fill="white"/>
<path fill-rule="evenodd" clip-rule="evenodd" d="M181.822 56.8516C181.904 56.8593 181.985 56.8593 182.067 56.8516C183.602 56.8516 185.611 53.7201 186.422 50.856C186.47 50.6952 186.406 50.5221 186.265 50.4312C181.72 47.3311 174.773 42.5157 174.253 41.9414C173.768 40.969 173.403 39.9412 173.166 38.8806C172.802 37.3668 172.274 35.8972 171.591 34.498C171.529 34.4048 171.433 34.3398 171.323 34.317C171.212 34.2988 171.098 34.3273 171.008 34.3957L158.019 44.6244C157.877 44.7334 157.831 44.9274 157.909 45.0886C157.91 45.0908 157.912 45.0938 157.913 45.0976C158.02 45.3255 159.457 48.4028 161.611 48.9755C162.974 49.3355 165.209 48.5982 166.853 48.0561L166.881 48.0471C167.068 47.9816 167.27 47.9021 167.465 47.8253C167.927 47.6439 168.351 47.4772 168.456 47.5435C168.605 47.6379 169.818 48.5113 171.213 49.5342C177.396 54.0427 181.113 56.6785 181.822 56.8516ZM168.834 46.8275C168.734 46.7767 168.623 46.7523 168.511 46.7567C167.854 46.8352 167.211 46.9992 166.597 47.2445L166.58 47.2503C165.122 47.7303 162.922 48.455 161.777 48.1572C160.304 47.7874 159.114 45.7496 158.728 45.01L171.102 35.2298C171.622 36.4639 172.051 37.734 172.386 39.0301C172.914 40.8241 173.253 41.9571 173.654 42.3977C174.363 43.1924 183.658 49.5499 185.572 50.8482C184.619 54.082 182.744 56.2536 182.004 56.0569C181.369 55.8885 176.558 52.4013 173.21 49.9751C172.649 49.5685 172.13 49.1918 171.677 48.8654C171.463 48.7093 171.262 48.5631 171.074 48.4266C169.643 47.3863 168.98 46.904 168.834 46.8275Z" fill="#231F20"/>
<path d="M170.638 37.5666C170.545 38.3984 170.701 39.2391 171.087 39.9821C171.725 41.123 174.552 42.6416 174.552 42.6416L176.522 38.7075L172.662 35.9221L170.638 37.5666Z" fill="#231F20"/>
<path fill-rule="evenodd" clip-rule="evenodd" d="M174.371 42.9879C174.426 43.0192 174.489 43.0355 174.552 43.0351C174.593 43.0326 174.634 43.0219 174.67 43.0036C174.773 42.9728 174.858 42.9018 174.907 42.8069L176.876 38.8728C176.957 38.7011 176.904 38.4959 176.75 38.385L172.898 35.5996C172.755 35.4866 172.553 35.4866 172.41 35.5996L170.386 37.2677C170.311 37.329 170.264 37.4162 170.252 37.5116C170.148 38.4277 170.32 39.3539 170.748 40.1711C171.417 41.3749 174.064 42.8305 174.371 42.9879ZM171.433 39.7934C171.112 39.1729 170.967 38.4761 171.016 37.7791L172.678 36.4022L176.017 38.8177L174.387 42.1066C173.473 41.5795 171.843 40.5802 171.433 39.7934Z" fill="#231F20"/>
<path d="M182.988 48.5979C182.988 48.5979 184.02 45.3483 182.2 45.1202C182.167 44.5385 181.832 44.0166 181.317 43.7432C180.802 43.4699 180.181 43.4848 179.68 43.7826C179.68 43.7826 179.097 41.367 177.191 41.8549C175.285 42.3427 173.773 46.8984 174.04 48.0471C174.308 49.1959 175.789 48.4956 176.537 47.4177C176.537 47.4177 175.568 49.2116 176.214 49.6837C177.159 50.3761 178.152 49.1487 178.955 48.2517C178.955 48.2517 177.766 50.3525 179.515 50.5414C180.861 50.6909 182.114 47.9763 182.114 47.9763L182.988 48.5979Z" fill="white"/>
<path fill-rule="evenodd" clip-rule="evenodd" d="M179.436 50.9426H179.585C180.791 50.9426 181.799 49.3532 182.177 48.5507L182.712 48.9205C182.817 48.9908 182.948 49.0082 183.067 48.9677C183.185 48.9301 183.277 48.8355 183.311 48.7159C183.406 48.4877 184.012 46.4971 183.311 45.4034C183.121 45.1021 182.827 44.8809 182.484 44.7818C182.342 44.1959 181.982 43.6864 181.476 43.3576C180.986 43.11 180.416 43.0758 179.9 43.2632C179.672 42.6243 179.247 42.0736 178.687 41.6896C178.199 41.3965 177.61 41.3222 177.065 41.485C174.891 42.0436 173.324 46.8118 173.615 48.1415C173.677 48.5786 174.009 48.9289 174.442 49.0149C174.84 49.0701 175.244 48.9837 175.584 48.771C175.456 49.2166 175.594 49.6962 175.939 50.0063C176.718 50.5807 177.474 50.2187 178.128 49.6443C178.133 50.3626 178.717 50.9426 179.436 50.9426ZM179.152 47.9369C179.085 47.8842 179.001 47.8564 178.916 47.8583C178.806 47.8585 178.7 47.904 178.624 47.9841L178.459 48.173C177.608 49.1172 176.955 49.7624 176.403 49.3611C176.222 49.2273 176.443 48.3776 176.844 47.5907C176.938 47.4069 176.876 47.1825 176.703 47.0714C176.525 46.9633 176.294 47.0115 176.175 47.1816C175.838 47.7532 175.257 48.1389 174.6 48.2281C174.544 48.2202 174.442 48.1966 174.387 47.9527C174.174 46.9534 175.584 42.6574 177.262 42.2325C177.601 42.1262 177.969 42.1661 178.278 42.3426C178.771 42.7252 179.121 43.2631 179.27 43.8691C179.301 43.982 179.378 44.0765 179.483 44.1287C179.588 44.1762 179.709 44.1762 179.814 44.1287C180.21 43.8995 180.689 43.8646 181.113 44.0343C181.479 44.3054 181.723 44.7098 181.791 45.1595C181.817 45.3345 181.954 45.4719 182.13 45.4978C182.35 45.5136 182.55 45.6297 182.673 45.8125C182.931 46.496 182.956 47.2457 182.744 47.9448L182.303 47.6379C182.207 47.5691 182.085 47.5487 181.972 47.5829C181.861 47.6144 181.77 47.6917 181.72 47.7953C181.35 48.5821 180.31 50.2423 179.522 50.1558C179.089 50.1086 178.979 49.9355 178.979 49.8804C178.79 49.5106 179.089 48.7552 179.262 48.4484C179.357 48.2741 179.31 48.0568 179.152 47.9369Z" fill="#231F20"/>
<path d="M174.568 38.8492C174.568 38.8492 173.489 36.9766 172.355 38.621C171.221 40.2655 169.858 43.3419 171.748 43.6724C173.639 44.0029 175.056 40.4779 174.568 38.8492Z" fill="white"/>
<path fill-rule="evenodd" clip-rule="evenodd" d="M171.685 44.0736C171.788 44.0814 171.89 44.0814 171.993 44.0736C172.67 44.0419 173.301 43.7209 173.725 43.1924C174.763 41.9601 175.21 40.3357 174.946 38.7468L174.907 38.6603C174.906 38.6586 174.905 38.6567 174.903 38.6545C174.825 38.5265 174.255 37.5974 173.402 37.5587C172.828 37.5806 172.307 37.9035 172.032 38.4085C171.221 39.573 170 41.9098 170.551 43.2238C170.75 43.6891 171.183 44.0131 171.685 44.0736ZM172.678 38.8255C172.835 38.5973 173.087 38.3219 173.347 38.3219H173.363C173.718 38.3377 174.072 38.7862 174.198 38.9907C174.368 40.3049 173.983 41.6305 173.135 42.6495C172.829 43.0689 172.33 43.3033 171.811 43.271C171.577 43.2534 171.371 43.1083 171.276 42.8934C170.945 42.0987 171.725 40.2024 172.678 38.8255Z" fill="#231F20"/>
<path d="M169.015 56.1434C169.015 56.1434 167.771 50.2029 167.652 49.1407C167.456 47.3389 167.881 44.5221 169.464 44.0815C171.047 43.6409 174.67 43.2238 174.072 44.8132C173.528 46.261 170.354 46.5364 170.354 46.5364C170.354 46.5364 172.544 48.7395 172.213 50.9347" fill="white"/>
<path d="M169.015 56.5369C168.83 56.5378 168.67 56.4102 168.629 56.2301C168.582 55.9862 167.385 50.2502 167.266 49.1487C167.062 47.3075 167.455 44.1996 169.362 43.6409C170.354 43.3655 173.387 42.799 174.277 43.7668C174.551 44.0723 174.616 44.5123 174.442 44.8841C173.993 46.0958 172.181 46.5758 171.134 46.7646C171.795 47.5986 172.859 49.2431 172.599 50.9269C172.578 51.0675 172.483 51.1861 172.351 51.2381C172.218 51.2901 172.068 51.2676 171.957 51.1791C171.846 51.0906 171.79 50.9494 171.811 50.8089C172.111 48.834 170.086 46.7646 170.071 46.7489C169.963 46.6387 169.927 46.4776 169.976 46.3319C170.031 46.1895 170.162 46.0914 170.315 46.0801C171.102 46.0093 173.324 45.608 173.694 44.6087C173.78 44.3963 173.694 44.3333 173.694 44.3019C173.276 43.8376 171.094 43.9793 169.566 44.3963C168.283 44.7504 167.857 47.3154 168.046 49.0307C168.164 50.0614 169.393 55.9468 169.401 56.0019C169.424 56.1044 169.404 56.2118 169.347 56.2995C169.289 56.3871 169.197 56.4473 169.094 56.4661L169.015 56.5369Z" fill="#231F20"/>
<path d="M192.275 33.6168C192.275 33.6168 179.152 32.3186 173.796 35.4186C172.45 36.2215 171.161 37.1153 169.937 38.0938C167.03 40.3678 164.297 42.9485 162.17 44.3884C157.949 47.221 153.869 47.7953 151.088 43.2869C148.725 39.4393 150.104 37.6139 153.301 34.1912C154.877 32.4995 158.216 29.7063 161.091 26.6141C162.791 24.8951 164.224 22.9327 165.345 20.7916C167.771 15.693 167.085 7.87988 167.085 7.87988L192.275 33.6168Z" fill="white"/>
<path fill-rule="evenodd" clip-rule="evenodd" d="M155.011 46.8433C155.424 46.9361 155.847 46.981 156.271 46.977C158.075 46.977 160.123 46.2217 162.407 44.711C163.91 43.6379 165.356 42.4876 166.739 41.2647C167.834 40.3284 169.007 39.3527 170.197 38.4164C171.405 37.4489 172.679 36.5655 174.009 35.7727C178.915 32.9202 190.758 33.8887 192.123 34.0003C192.2 34.0066 192.244 34.0102 192.251 34.0102C192.417 34.023 192.574 33.9322 192.645 33.782C192.715 33.6347 192.687 33.4594 192.574 33.3414L167.369 7.58087C167.254 7.45704 167.073 7.42198 166.92 7.49432C166.77 7.56554 166.679 7.72199 166.692 7.88773C166.699 7.96642 167.353 15.6773 164.99 20.6342C163.891 22.7396 162.481 24.6679 160.808 26.3544C159.146 28.1012 157.374 29.785 155.798 31.2485C154.664 32.2949 153.687 33.2077 153.01 33.9315C149.781 37.3935 148.213 39.3842 150.757 43.5071C151.645 45.1646 153.188 46.3746 155.011 46.8433ZM165.707 20.9726C167.629 16.889 167.637 11.2396 167.542 8.87913L191.282 33.1683C188.021 32.9244 178.191 32.468 173.631 35.1196C172.257 35.9333 170.942 36.8403 169.693 37.8342C168.661 38.641 167.658 39.4829 166.68 40.3045C166.523 40.4363 166.367 40.5676 166.211 40.6982C164.852 41.9014 163.43 43.0308 161.95 44.0815C159.327 45.8361 157.051 46.5207 155.176 46.1115C153.565 45.6771 152.208 44.5943 151.427 43.1216C149.174 39.4472 150.434 37.8106 153.585 34.4666C154.225 33.7815 155.173 32.9006 156.261 31.8902L156.334 31.8229L156.363 31.7961C157.939 30.3314 159.715 28.6804 161.383 26.8895C163.11 25.1425 164.568 23.1483 165.707 20.9726Z" fill="#231F20"/>
<path d="M170.638 37.5666C167.731 39.8406 164.218 42.8541 162.17 44.3805C157.492 47.874 154.53 48.2438 151.474 43.9242C148.323 39.4865 150.104 37.6296 153.301 34.199C154.877 32.5074 158.216 29.7142 161.091 26.6219C161.091 26.6219 161.273 29.84 164.478 33.7663C166.052 35.6811 168.219 37.0181 170.638 37.5666Z" fill="#231F20"/>
<path fill-rule="evenodd" clip-rule="evenodd" d="M155.515 47.4177C155.754 47.4562 155.997 47.4746 156.239 47.4728C157.925 47.4728 159.894 46.5915 162.407 44.6953C163.441 43.9259 164.837 42.7811 166.335 41.5533C166.445 41.4628 166.556 41.3718 166.668 41.2805C166.837 41.1424 167.007 41.0038 167.177 40.8649C168.432 39.8405 169.703 38.803 170.882 37.8814C171 37.7811 171.055 37.6243 171.024 37.4723C170.982 37.3236 170.86 37.2111 170.709 37.1811C168.385 36.6414 166.303 35.353 164.785 33.5146C161.714 29.7457 161.485 26.5984 161.485 26.5984C161.475 26.4415 161.373 26.3053 161.225 26.2522C161.078 26.1963 160.912 26.237 160.808 26.3545C159.146 28.1012 157.374 29.785 155.798 31.2485C155.706 31.3336 155.615 31.4177 155.525 31.5008C154.507 32.439 153.629 33.2481 152.971 33.9709L152.96 33.9825C149.768 37.4061 147.839 39.476 151.151 44.1524C152.553 46.1352 153.939 47.1738 155.515 47.4177ZM156.334 31.8229C157.744 30.5168 159.319 29.0533 160.823 27.4796C161.409 29.8896 162.556 32.1273 164.171 34.0103C165.628 35.7789 167.572 37.0812 169.763 37.7555C168.598 38.684 167.369 39.6911 166.172 40.6746C165.871 40.9207 165.573 41.1655 165.281 41.4059C164.003 42.4569 162.825 43.4255 161.934 44.0658C159.201 46.1037 157.263 46.8905 155.633 46.6387C154.286 46.4263 153.065 45.49 151.797 43.696C148.867 39.5449 150.426 37.8668 153.56 34.4938L153.585 34.4666C154.224 33.7815 155.173 32.9006 156.261 31.8902L156.334 31.8229Z" fill="#231F20"/>
<path d="M195.913 32.5073C192.976 35.1432 186.462 32.9479 180.121 27.5897C178.496 26.2191 176.97 24.7362 175.553 23.152C174.16 21.5973 172.876 19.9489 171.709 18.2186C166.983 11.2789 165.51 4.55942 168.472 1.90783C172.126 -1.37322 181.247 2.81267 188.832 11.2631C196.418 19.7136 199.584 29.2184 195.913 32.5073Z" fill="#7C5DFA"/>
<path fill-rule="evenodd" clip-rule="evenodd" d="M167.92 1.33345C168.991 0.423529 170.367 -0.048605 171.772 0.0115924C176.624 0.0115924 183.524 4.22109 189.4 10.7045C192.864 14.4189 195.559 18.78 197.331 23.5376C198.804 27.8651 198.466 31.2484 196.441 33.0581C195.367 33.9869 193.978 34.471 192.558 34.4114C189.037 34.4114 184.311 32.1297 179.585 28.1955C176.318 25.4097 173.441 22.1968 171.032 18.6435C165.967 11.1687 164.715 4.20535 167.92 1.33345ZM188.809 11.271C182.98 4.77973 176.238 0.798414 171.772 0.798414C170.572 0.746048 169.396 1.14151 168.472 1.90783C165.51 4.55942 166.983 11.2789 171.709 18.2186C172.87 19.9512 174.149 21.6021 175.537 23.1599C176.954 24.7441 178.48 26.227 180.105 27.5976C184.65 31.4215 189.242 33.6325 192.574 33.6325C193.783 33.6894 194.969 33.2906 195.898 32.5152C199.584 29.2263 196.402 19.7215 188.809 11.271Z" fill="#231F20"/>
<path d="M185.359 21.0434L180.121 27.5898C178.496 26.2192 176.97 24.7363 175.553 23.1521C174.16 21.5973 172.876 19.949 171.709 18.2187L179.286 13.5686L185.359 21.0434Z" fill="white"/>
<ellipse cx="182.308" cy="17.3335" rx="2.24386" ry="4.81741" transform="rotate(-39.4 182.308 17.3335)" fill="#231F20"/>
<path fill-rule="evenodd" clip-rule="evenodd" d="M180.255 18.9898C181.649 20.6893 183.319 21.6886 184.556 21.6886C184.928 21.6944 185.291 21.5753 185.587 21.3502C186.729 20.4061 186.17 17.904 184.311 15.6458C183.562 14.6736 182.614 13.8716 181.531 13.2932C180.475 12.8211 179.578 12.8132 178.987 13.2932C178.396 13.7731 178.231 14.6623 178.522 15.7953C178.871 16.9691 179.461 18.0571 180.255 18.9898ZM179.483 13.899C179.649 13.7759 179.852 13.7147 180.058 13.7259C180.443 13.75 180.819 13.8546 181.161 14.0328C182.152 14.5491 183.024 15.2675 183.721 16.1415C185.375 18.1557 185.776 20.1779 185.099 20.7365C184.422 21.2952 182.515 20.5083 180.861 18.4941C180.138 17.6508 179.601 16.664 179.286 15.5986C179.081 14.796 179.152 14.1744 179.483 13.899Z" fill="#231F20"/>
<path d="M178.916 48.6451C178.846 48.6455 178.778 48.6264 178.719 48.59C178.628 48.5389 178.562 48.4532 178.535 48.3524C178.508 48.2516 178.523 48.1443 178.577 48.0549C179.067 47.2544 179.672 46.5306 180.373 45.9069C180.477 45.797 180.635 45.7565 180.779 45.8025C180.923 45.8486 181.028 45.9731 181.049 46.1229C181.07 46.2727 181.003 46.4212 180.877 46.5049C180.265 47.0803 179.735 47.7369 179.302 48.4562C179.221 48.5884 179.07 48.6619 178.916 48.6451Z" fill="#231F20"/>
<path d="M176.498 47.8111H176.435C176.332 47.7902 176.243 47.7296 176.185 47.6425C176.127 47.5555 176.107 47.4491 176.128 47.3468C176.412 46.2239 177.077 45.2341 178.01 44.5457C178.184 44.4154 178.431 44.4506 178.561 44.6244C178.692 44.7982 178.657 45.0448 178.483 45.1752C177.711 45.7498 177.156 46.5676 176.907 47.4963C176.865 47.6867 176.693 47.8194 176.498 47.8111Z" fill="#231F20"/>
<path d="M182.074 48.3696C181.995 48.3702 181.918 48.3454 181.854 48.2988C181.768 48.2386 181.709 48.1465 181.692 48.0431C181.674 47.9397 181.698 47.8335 181.759 47.7481L182.295 46.9612C182.425 46.7898 182.666 46.7485 182.846 46.8668C183.022 46.9947 183.063 47.2386 182.941 47.4176L182.397 48.2044C182.325 48.3109 182.203 48.3731 182.074 48.3696Z" fill="#231F20"/>
<path d="M157.216 46.678C157.131 46.6786 157.048 46.6509 156.98 46.5993C153.498 43.9556 151.34 40.7453 150.915 37.5666V37.48C150.864 37.3086 150.935 37.1243 151.088 37.0315C151.176 36.9739 151.284 36.9547 151.387 36.9785C151.489 37.0022 151.578 37.0669 151.632 37.1574C151.678 37.2533 151.705 37.3577 151.71 37.4643C152.112 40.4385 154.152 43.4599 157.476 45.9698C157.613 46.0723 157.668 46.2513 157.612 46.4128C157.556 46.5743 157.403 46.6814 157.232 46.678H157.216Z" fill="white"/>
<path d="M155.27 34.1203C155.161 34.1188 155.058 34.07 154.987 33.9865C154.913 33.914 154.871 33.8148 154.871 33.7112C154.871 33.6075 154.913 33.5083 154.987 33.4358L159.225 29.5017C159.296 29.4256 159.396 29.3824 159.5 29.3824C159.605 29.3824 159.704 29.4256 159.776 29.5017C159.85 29.5742 159.892 29.6734 159.892 29.7771C159.892 29.8807 159.85 29.9799 159.776 30.0524L155.538 33.9865C155.471 34.066 155.374 34.1144 155.27 34.1203Z" fill="white"/>
<path d="M155.853 35.0645C155.744 35.0617 155.639 35.0166 155.562 34.9386C155.411 34.7829 155.411 34.5356 155.562 34.3799L159.8 30.4458C159.953 30.2959 160.198 30.2959 160.351 30.4458C160.426 30.5197 160.467 30.6203 160.467 30.7252C160.467 30.8301 160.426 30.9306 160.351 31.0045L156.121 34.9386C156.05 35.0118 155.955 35.0566 155.853 35.0645Z" fill="white"/>
<path d="M156.523 36.1504C156.414 36.153 156.31 36.1068 156.239 36.0245C156.165 35.952 156.124 35.8527 156.124 35.7491C156.124 35.6455 156.165 35.5463 156.239 35.4737L160.477 31.5396C160.548 31.4636 160.648 31.4204 160.753 31.4204C160.857 31.4204 160.957 31.4636 161.028 31.5396C161.102 31.6121 161.144 31.7114 161.144 31.815C161.144 31.9186 161.102 32.0179 161.028 32.0904L156.791 36.0245C156.723 36.1018 156.626 36.1475 156.523 36.1504Z" fill="white"/>
<path d="M86.4216 96.8379L84.4446 140.444C84.4446 140.444 111.422 140.766 126.939 134.291C128.21 130.134 129.747 126.063 131.539 122.103C133.815 117.508 143.59 110.733 140.518 93.1399C140.518 93.1399 163.549 107.696 170.039 101.008C176.529 94.3201 179.775 63.0833 179.775 63.0833L166.29 58.7557L160.162 78.0171C160.162 78.0171 121.299 59.2357 112.241 56.8595C108.878 55.9783 98.4255 61.5332 86.4452 69.2205" fill="#7C5DFA"/>
<path d="M111.406 69.9365C111.406 69.9365 117.652 89.3238 118.723 97.5304C119.795 105.737 119.952 119.302 119.952 119.302C119.952 119.302 129.837 89.0563 128.616 70.3771L111.406 69.9365Z" fill="#231F20"/>
<path fill-rule="evenodd" clip-rule="evenodd" d="M119.905 119.656H119.952C120.107 119.659 120.245 119.56 120.291 119.412C120.385 119.136 130.176 88.8832 128.955 70.3535C128.947 70.1729 128.797 70.0308 128.616 70.031L111.414 69.5903C111.302 69.5905 111.196 69.6436 111.13 69.7335C111.063 69.8234 111.043 69.9395 111.075 70.0467C111.076 70.0479 111.076 70.0499 111.077 70.0525C111.215 70.4815 117.328 89.547 118.377 97.5854C119.432 105.674 119.605 119.184 119.605 119.317C119.608 119.489 119.735 119.632 119.905 119.656ZM119.07 97.4832C118.101 90.0477 112.84 73.3041 111.886 70.2985L128.285 70.7312C129.199 86.3339 122.41 110.072 120.259 117.154C120.165 112.991 119.858 103.668 119.07 97.4832Z" fill="#231F20"/>
<path d="M79.9391 163.592H154.38L126.962 134.291L84.4682 140.444C84.4682 140.444 79.3799 151.947 79.8604 160.02C79.8919 160.972 79.9155 162.191 79.9391 163.592Z" fill="#231F20"/>
<path fill-rule="evenodd" clip-rule="evenodd" d="M79.9392 163.985H154.381H154.388C154.546 163.986 154.688 163.894 154.752 163.75C154.815 163.607 154.787 163.439 154.68 163.324L127.262 134.023C127.173 133.929 127.044 133.882 126.915 133.897L84.3816 140.05C84.2507 140.073 84.1391 140.158 84.0823 140.278C83.8696 140.758 78.9625 151.963 79.443 160.043C79.4981 161.011 79.5454 162.278 79.5454 163.6C79.5454 163.703 79.5871 163.803 79.6612 163.875C79.7353 163.948 79.8355 163.987 79.9392 163.985ZM153.467 163.198H80.3409C80.3409 162.108 80.2945 161.07 80.2564 160.22C80.253 160.144 80.2496 160.069 80.2464 159.996C79.8053 152.686 84.0665 142.371 84.736 140.798L126.813 134.708L153.467 163.198Z" fill="#231F20"/>
<path d="M126.474 59.5111L128.608 70.3771C128.608 70.3771 128.664 76.6717 121.685 76.0659C117.509 75.6743 113.733 73.4224 111.406 69.9365L108.578 50.9584C108.822 47.5028 108.54 44.0303 107.743 40.6589C115.77 38.9987 120.952 31.7363 120.952 31.7363C120.952 31.7363 124.505 35.3557 125.954 36.4573C127.12 37.2553 128.179 38.1993 129.105 39.2662C130.625 41.1467 131.074 43.7747 131.468 46.0958C131.963 48.8508 132.208 51.6449 132.2 54.444C132.074 59.755 126.474 59.5111 126.474 59.5111Z" fill="white"/>
<path fill-rule="evenodd" clip-rule="evenodd" d="M121.653 76.4671H122.591C124.188 76.5481 125.757 76.0193 126.978 74.9879C128.2 73.7564 128.89 72.0954 128.9 70.3614L126.844 59.9203C128.341 59.8711 129.776 59.3163 130.916 58.3466C131.962 57.3341 132.533 55.9294 132.492 54.4754C132.5 51.6551 132.252 48.8398 131.751 46.0643C131.373 43.7904 130.893 41.0523 129.317 39.0695C128.392 37.9861 127.333 37.0238 126.167 36.2054C125.105 35.41 122.869 33.1852 121.795 32.1176C121.436 31.7596 121.207 31.5317 121.197 31.5317C121.125 31.4523 121.02 31.4114 120.913 31.4216C120.806 31.4304 120.709 31.4849 120.645 31.5711C120.598 31.6419 115.455 38.7784 107.665 40.352C107.571 40.3721 107.489 40.4287 107.436 40.5094C107.382 40.5872 107.365 40.6851 107.389 40.7769C108.125 43.8295 108.406 46.9739 108.224 50.1086C108.192 50.4252 108.192 50.7441 108.224 51.0606C108.232 51.1551 111.052 70.0388 111.052 70.0388C111.06 70.0856 111.076 70.1307 111.099 70.1725C113.476 73.7644 117.36 76.0808 121.653 76.4671ZM121.716 75.7118C117.685 75.3144 114.036 73.1536 111.753 69.8106C108.956 51.0921 108.988 50.8954 108.988 50.8954C108.967 50.6336 108.967 50.3704 108.988 50.1086C109.17 47.0311 108.904 43.9436 108.2 40.9421C115.171 39.3685 119.889 33.7427 121.015 32.2871C121.874 33.184 124.513 35.812 125.741 36.7326C126.868 37.5171 127.892 38.4397 128.79 39.4786C130.241 41.2492 130.663 43.723 131.039 45.9307C131.051 45.9991 131.062 46.0673 131.074 46.1351C131.568 48.8691 131.814 51.6422 131.806 54.4204C131.849 55.671 131.373 56.8838 130.491 57.7722C129.362 58.6895 127.944 59.1774 126.49 59.1492C126.378 59.1402 126.268 59.1874 126.198 59.2751C126.13 59.3618 126.102 59.4731 126.119 59.5819L128.246 70.3771C128.209 71.8888 127.601 73.3305 126.545 74.4135C125.418 75.4521 123.796 75.8849 121.716 75.7118Z" fill="#231F20"/>
<path d="M127.427 64.8615C127.427 64.8615 123.047 65.8922 119.645 63.4924C116.242 61.0926 116.1 58.0476 116.1 58.0476C116.1 58.0476 121.488 60.3373 126.474 59.5111L127.427 64.8615Z" fill="#231F20"/>
<path fill-rule="evenodd" clip-rule="evenodd" d="M119.448 63.7757C121.128 64.8997 123.114 65.4794 125.135 65.4359C125.942 65.4471 126.748 65.368 127.537 65.1998C127.72 65.1604 127.839 64.9827 127.805 64.7986L126.844 59.4482C126.812 59.2624 126.637 59.1365 126.45 59.1649C122.024 59.9018 117.187 58.0716 116.382 57.7672C116.31 57.7401 116.27 57.725 116.266 57.725C116.157 57.6777 116.03 57.6927 115.935 57.7644C115.833 57.8284 115.776 57.9436 115.785 58.0634C115.785 58.2365 115.943 61.3051 119.448 63.7757ZM119.873 63.2092C118.24 62.13 117.064 60.4846 116.573 58.5905C118.038 59.1413 122.165 60.4632 126.222 59.9045L127.057 64.5861C126.009 64.7828 122.591 65.129 119.873 63.2092Z" fill="#231F20"/>
<path d="M120.661 40.9814C120.661 40.9814 125.158 45.545 124.497 46.6072C123.835 47.6694 121.393 47.5199 121.393 47.5199" fill="white"/>
<path d="M121.772 47.874H121.37C121.278 47.868 121.192 47.8256 121.132 47.7562C121.071 47.6868 121.041 47.5961 121.047 47.5042C121.06 47.3117 121.224 47.1648 121.417 47.1738C122.039 47.1738 123.78 47.1738 124.206 46.4341C124.473 45.9935 122.709 43.5622 120.417 41.2333C120.282 41.0964 120.284 40.8762 120.421 40.7415C120.558 40.6068 120.778 40.6085 120.913 40.7454C122.323 42.1774 125.521 45.6316 124.796 46.804C124.198 47.756 122.551 47.874 121.772 47.874Z" fill="#231F20"/>
<ellipse cx="126.624" cy="42.3438" rx="0.614338" ry="1.14882" transform="rotate(-13.01 126.624 42.3438)" fill="#231F20"/>
<ellipse cx="116.589" cy="43.3625" rx="0.614338" ry="1.14882" transform="rotate(-13.01 116.589 43.3625)" fill="#231F20"/>
<path d="M111.154 44.6953C110.059 42.9249 107.499 42.681 105.711 43.397C104.498 43.8306 103.671 44.9588 103.624 46.2453C103.61 47.0176 103.749 47.7851 104.034 48.5035C104.509 49.8504 105.224 51.1005 106.144 52.1937C106.573 52.7656 107.139 53.2202 107.791 53.5155C108.63 53.8116 109.565 53.5687 110.154 52.9018" fill="white"/>
<path d="M108.531 54.0191C108.235 54.0188 107.941 53.9627 107.665 53.8538C106.958 53.5336 106.341 53.0445 105.869 52.4297C104.924 51.3023 104.187 50.0153 103.695 48.6293C103.394 47.8628 103.247 47.0448 103.262 46.2217C103.324 44.8007 104.238 43.5578 105.577 43.0744C107.547 42.2876 110.303 42.6023 111.461 44.5143C111.544 44.6817 111.485 44.8843 111.326 44.9821C111.167 45.0799 110.959 45.0409 110.847 44.8919C109.862 43.3183 107.539 43.0586 105.845 43.7353C104.764 44.1181 104.023 45.1166 103.971 46.261C103.96 46.9875 104.091 47.709 104.357 48.3854C104.819 49.6917 105.513 50.9043 106.404 51.9655C106.797 52.4879 107.314 52.9044 107.909 53.1772C108.621 53.4272 109.414 53.2183 109.91 52.65C109.994 52.5378 110.137 52.4849 110.274 52.5143C110.412 52.5437 110.52 52.6501 110.552 52.7871C110.583 52.9242 110.532 53.067 110.422 53.1536C109.932 53.6825 109.252 53.9941 108.531 54.0191Z" fill="#231F20"/>
<path d="M125.072 48.9362L119.802 49.4476C119.802 49.4476 120.897 57.5833 123.268 57.363C125.639 57.1427 125.647 51.2651 125.072 48.9362Z" fill="white"/>
<path fill-rule="evenodd" clip-rule="evenodd" d="M119.456 49.4948C119.637 50.8875 120.685 57.7171 123.166 57.7171L123.3 57.7092C123.876 57.6421 124.391 57.3182 124.702 56.828C126.009 54.9947 125.859 50.6593 125.411 48.8496C125.368 48.6835 125.211 48.5731 125.04 48.59L119.763 49.1014C119.668 49.108 119.581 49.1572 119.527 49.2352C119.464 49.3062 119.438 49.402 119.456 49.4948ZM123.166 57.0168C121.772 57.0168 120.637 52.7365 120.196 49.7623L124.804 49.3453C125.214 51.3281 125.166 54.9711 124.135 56.4267C123.938 56.7474 123.609 56.9639 123.237 57.0168H123.166Z" fill="#231F20"/>
<path d="M138.257 112.024C138.128 112.023 138.01 111.953 137.947 111.84C137.885 111.727 137.889 111.59 137.958 111.481C138.013 111.378 143.802 101.653 138.265 81.4004C138.219 81.2101 138.33 81.0168 138.517 80.9598C138.609 80.9334 138.708 80.9453 138.791 80.9927C138.874 81.0401 138.934 81.1191 138.958 81.2116C144.59 101.795 138.816 111.457 138.564 111.898C138.49 111.989 138.374 112.036 138.257 112.024Z" fill="#231F20"/>
<path d="M31.136 83.8789L116.171 145.164L201.207 83.8789V184.419H31.136V83.8789Z" fill="white"/>
<path fill-rule="evenodd" clip-rule="evenodd" d="M30.7423 184.419C30.7423 184.636 30.9186 184.812 31.1361 184.812H201.207C201.422 184.808 201.596 184.635 201.601 184.419V83.879C201.6 83.7308 201.514 83.5962 201.38 83.5328C201.255 83.4544 201.096 83.4544 200.97 83.5328L116.171 144.645L31.3645 83.5328C31.2393 83.4544 31.0802 83.4544 30.955 83.5328C30.8227 83.597 30.7397 83.7321 30.7423 83.879V184.419ZM200.852 184.026H31.5063V84.65L115.935 145.479C116.074 145.58 116.261 145.58 116.4 145.479L200.852 84.65V184.026Z" fill="#231F20"/>
<path d="M31.136 184.812C30.9917 184.813 30.8587 184.734 30.7894 184.608C30.6877 184.418 30.7537 184.182 30.9391 184.073L108.744 139.609C108.933 139.503 109.173 139.57 109.279 139.759C109.333 139.848 109.348 139.956 109.322 140.056C109.295 140.157 109.229 140.243 109.138 140.294L31.325 184.757C31.2676 184.791 31.2026 184.81 31.136 184.812Z" fill="#231F20"/>
<path d="M201.207 184.812C201.137 184.81 201.07 184.791 201.01 184.757L123.205 140.294C123.016 140.187 122.949 139.948 123.055 139.759C123.165 139.574 123.401 139.508 123.591 139.61L201.396 184.073C201.585 184.18 201.651 184.419 201.545 184.608C201.479 184.733 201.349 184.812 201.207 184.812Z" fill="#231F20"/>
<path d="M71.6766 138.303C71.6766 138.303 75.1186 147.257 75.9299 147.745C76.7412 148.233 86.327 152.152 85.6417 153.985C84.9564 155.818 80.6401 153.584 80.6401 153.584C80.6401 153.584 86.8547 160.767 85.2164 162.034C83.578 163.301 78.0644 165.874 75.8511 164.827C73.6378 163.781 62.6028 150.122 60.2634 144.189" fill="white"/>
<path d="M77.1903 165.488C76.6767 165.504 76.166 165.407 75.6937 165.205C73.3308 164.08 62.2248 150.255 59.9012 144.354C59.8506 144.222 59.8743 144.073 59.9635 143.963C60.0528 143.853 60.1939 143.799 60.3337 143.821C60.4736 143.844 60.591 143.939 60.6416 144.071C63.0046 150.122 74.1105 163.584 76.0245 164.528C77.9385 165.472 83.3182 163.08 84.9881 161.782C85.0606 161.715 85.1032 161.621 85.1062 161.523C85.2559 159.949 81.7193 155.488 80.3803 153.898C80.2566 153.755 80.2521 153.545 80.3696 153.397C80.487 153.249 80.6932 153.205 80.8607 153.292C81.6484 153.702 83.9011 154.677 84.9093 154.292C85.0963 154.229 85.2443 154.084 85.311 153.898C85.5 153.387 84.2555 152.104 77.2375 148.855C76.3869 148.461 75.9379 148.249 75.7567 148.131C74.9061 147.588 72.165 140.601 71.3459 138.477C71.3075 138.379 71.3101 138.269 71.353 138.173C71.396 138.077 71.4757 138.002 71.5743 137.965C71.7765 137.891 72.0012 137.992 72.0784 138.193C73.7167 142.45 75.7016 147.084 76.1899 147.478C76.3238 147.564 76.8988 147.832 77.5683 148.139C83.2237 150.751 86.6106 152.679 86.0514 154.174C85.9047 154.571 85.5909 154.885 85.1928 155.031C84.1308 155.248 83.0273 155.121 82.0422 154.669C83.5624 156.566 86.075 159.973 85.9175 161.593C85.8917 161.902 85.7409 162.186 85.5 162.38C84.2004 163.364 80.0101 165.488 77.1903 165.488Z" fill="#231F20"/>
<path d="M86.4453 69.252C66.1868 82.2502 41.5489 101.378 39.4695 105.847C36.1456 112.928 61.004 148.54 61.004 148.54L74.465 140.011L62.1619 113.314L86.4216 96.8301" fill="#7C5DFA"/>
<path d="M70.889 107.806C70.7705 107.81 70.6582 107.753 70.5897 107.657C70.4792 107.493 70.5174 107.271 70.6764 107.153L97.9135 88.1042C97.9912 88.047 98.0889 88.0238 98.184 88.0402C98.2792 88.0565 98.3635 88.1109 98.4176 88.1908C98.472 88.27 98.4926 88.3677 98.4749 88.4621C98.4571 88.5566 98.4025 88.6401 98.3231 88.6943L71.0938 107.743C71.0344 107.786 70.9624 107.809 70.889 107.806Z" fill="#231F20"/>
<path d="M189.234 161.79L222.245 141.608L194.275 153.245L189.234 161.79Z" fill="#231F20"/>
<path fill-rule="evenodd" clip-rule="evenodd" d="M188.959 162.065C189.031 162.14 189.13 162.183 189.234 162.183C189.309 162.172 189.379 162.142 189.439 162.097L222.473 141.946C222.65 141.84 222.715 141.616 222.622 141.432C222.529 141.248 222.309 141.167 222.119 141.246L194.118 152.883C194.04 152.916 193.976 152.974 193.937 153.048L188.896 161.585C188.804 161.741 188.83 161.939 188.959 162.065ZM190.376 160.61L194.543 153.528L217.7 143.906L190.376 160.61Z" fill="#231F20"/>
<path d="M194.275 153.245L205.066 158.761L222.245 141.608L194.275 153.245Z" fill="white"/>
<path fill-rule="evenodd" clip-rule="evenodd" d="M204.901 159.075C204.951 159.103 205.008 159.117 205.066 159.115C205.164 159.121 205.259 159.083 205.326 159.013L222.505 141.86C222.629 141.742 222.649 141.552 222.552 141.411C222.457 141.271 222.277 141.215 222.119 141.278L194.133 152.915C194.006 152.973 193.921 153.097 193.913 153.237C193.906 153.377 193.983 153.507 194.11 153.568L204.901 159.075ZM204.995 158.32L195.126 153.284L220.701 142.639L204.995 158.32Z" fill="#231F20"/>
<path d="M222.245 141.608L186.706 150.09L178.625 145.471L222.245 141.608Z" fill="white"/>
<path fill-rule="evenodd" clip-rule="evenodd" d="M186.501 150.397C186.554 150.428 186.613 150.444 186.674 150.444L186.761 150.436L222.3 141.962C222.482 141.916 222.598 141.738 222.568 141.553C222.536 141.369 222.369 141.239 222.182 141.254L178.562 145.117C178.407 145.134 178.281 145.247 178.247 145.398C178.213 145.549 178.279 145.705 178.412 145.786L186.501 150.397ZM186.73 149.697L179.767 145.723L217.393 142.426L186.73 149.697Z" fill="#231F20"/>
<path d="M186.706 150.09L189.234 161.79L194.275 153.245L222.245 141.608L186.706 150.09Z" fill="white"/>
<path fill-rule="evenodd" clip-rule="evenodd" d="M189.179 162.152H189.234C189.373 162.163 189.505 162.093 189.573 161.971L194.551 153.536L222.387 141.946C222.574 141.886 222.676 141.685 222.615 141.498C222.554 141.311 222.353 141.209 222.166 141.27L186.627 149.744C186.535 149.764 186.455 149.821 186.405 149.901C186.355 149.98 186.338 150.077 186.359 150.169L188.88 161.877C188.914 162.021 189.032 162.13 189.179 162.152ZM189.392 160.807L187.131 150.35L217.968 142.993L194.134 152.907C194.062 152.939 194.002 152.991 193.96 153.056L189.392 160.807Z" fill="#231F20"/>
<path d="M181.948 163.419C181.775 163.415 181.625 163.299 181.578 163.132C181.531 162.966 181.598 162.789 181.744 162.695L183.059 161.853C183.242 161.734 183.487 161.785 183.606 161.967C183.726 162.15 183.675 162.394 183.492 162.514L182.161 163.364C182.096 163.4 182.023 163.419 181.948 163.419Z" fill="#D1D3D4"/>
</svg>